<svg width="592.2" height="583.9" xmlns="http://www.w3.org/2000/svg" xml:space="preserve" baseProfile="basic" version="1.1">

 <g>
  <title>Layer 1</title>
  <g stroke="null" id="svg_1">
   <path stroke="null" id="svg_2" d="m554.9,256.60676l0,-70.68648c0,-84.27118 -68.49911,-152.77029 -152.77029,-152.77029c-41.09947,0 -78.51495,16.34769 -106.02972,42.94146c-27.51477,-26.47865 -64.93025,-42.94146 -106.02972,-42.94146c-84.27118,0 -152.77029,68.61424 -152.77029,152.77029l0,212.05944c0,84.27118 68.49911,152.77029 152.77029,152.77029l212.05944,0c84.27118,0 152.77029,-68.49911 152.77029,-152.77029l0,-102.69111l-305.54058,0l0,93.48114l212.05944,0l0,9.20996c0,32.69537 -26.59377,59.28915 -59.28915,59.28915l-212.05944,0c-32.69537,0 -59.28915,-26.59377 -59.28915,-59.28915l0,-212.05944c0,-32.69537 26.59377,-59.28915 59.28915,-59.28915c32.69537,0 59.28915,26.59377 59.28915,59.28915l0,70.68648l93.48114,0l0,-70.68648c0,-32.69537 26.59377,-59.28915 59.28915,-59.28915c32.69537,0 59.28915,26.59377 59.28915,59.28915l0,70.68648l93.48114,0z" fill="#E73C00"/>
  </g>
 </g>
</svg>